<svg xmlns="http://www.w3.org/2000/svg" xml:space="preserve" width="256" height="256" fill="hsl(156, 69%, 48%)">
  <path d="M10.303 136.287a8.395 8.395 0 0 1-5.96-2.47 8.426 8.426 0 0 1 0-11.92l118.02-118.02a8.426 8.426 0 0 1 11.92 0 8.426 8.426 0 0 1 0 11.92l-118.02 118.02a8.395 8.395 0 0 1-5.96 2.47zm-.466 47.486a8.395 8.395 0 0 1-5.96-2.47 8.426 8.426 0 0 1 0-11.92L169.383 3.877a8.426 8.426 0 0 1 11.92 0 8.426 8.426 0 0 1 0 11.92L15.797 181.306a8.404 8.404 0 0 1-5.96 2.467zm0 47.022a8.395 8.395 0 0 1-5.96-2.47 8.426 8.426 0 0 1 0-11.92L216.405 3.877a8.426 8.426 0 0 1 11.92 0 8.426 8.426 0 0 1 0 11.92L15.797 228.325a8.395 8.395 0 0 1-5.96 2.47zm23.511 23.512a8.395 8.395 0 0 1-5.96-2.47 8.426 8.426 0 0 1 0-11.92l212.529-212.53a8.426 8.426 0 0 1 11.92 0 8.426 8.426 0 0 1 0 11.92l-212.53 212.53a8.405 8.405 0 0 1-5.96 2.47zm47.022 0a8.395 8.395 0 0 1-5.96-2.47 8.426 8.426 0 0 1 0-11.92L239.917 74.41a8.426 8.426 0 0 1 11.92 0 8.426 8.426 0 0 1 0 11.92L86.33 251.837a8.405 8.405 0 0 1-5.96 2.47zm47.02 0a8.395 8.395 0 0 1-5.96-2.47 8.426 8.426 0 0 1 0-11.92l118.253-118.254a8.426 8.426 0 0 1 11.92 0 8.426 8.426 0 0 1 0 11.92L133.35 251.837a8.4 8.4 0 0 1-5.96 2.47zm47.02 0a8.4 8.4 0 0 1-5.96-2.47 8.426 8.426 0 0 1 0-11.92l71.467-71.467a8.426 8.426 0 0 1 11.92 0 8.426 8.426 0 0 1 0 11.92l-71.467 71.467a8.395 8.395 0 0 1-5.96 2.47zM9.837 89.73a8.395 8.395 0 0 1-5.96-2.47 8.426 8.426 0 0 1 0-11.92L75.34 3.878a8.426 8.426 0 0 1 11.92 0 8.426 8.426 0 0 1 0 11.92L15.797 87.26a8.395 8.395 0 0 1-5.96 2.47zm0-47.02a8.395 8.395 0 0 1-5.96-2.47 8.426 8.426 0 0 1 0-11.92L28.32 3.878a8.426 8.426 0 0 1 11.92 0 8.426 8.426 0 0 1 0 11.92L15.797 40.24a8.395 8.395 0 0 1-5.96 2.47zm211.598 211.597a8.4 8.4 0 0 1-5.96-2.47 8.426 8.426 0 0 1 0-11.92l24.442-24.442a8.426 8.426 0 0 1 11.92 0 8.426 8.426 0 0 1 0 11.92l-24.442 24.442a8.405 8.405 0 0 1-5.96 2.47z"/>
</svg>
